<svg version="1.1" xmlns="http://www.w3.org/2000/svg" xmlns:xlink="http://www.w3.org/1999/xlink" width="575.57357" height="401.3994" viewBox="0,0,575.57357,401.3994"><g transform="translate(24.97347,29.44796)"><g data-paper-data="{&quot;isPaintingLayer&quot;:true}" fill-rule="nonzero" stroke-width="2" stroke-linejoin="miter" stroke-miterlimit="10" stroke-dasharray="" stroke-dashoffset="0" style="mix-blend-mode: normal"><path d="M-23.97347,370.95144v-399.3994h573.57357v399.3994z" fill="#000000" stroke="#000000" stroke-linecap="butt"/><path d="M240.5,358l-1,-356" fill="none" stroke="#ffffff" stroke-linecap="round"/><path d="M229.86019,33.75174h23" fill="none" stroke="#000000" stroke-linecap="round"/><path d="M231.86019,55.75174l14,1" fill="none" stroke="#000000" stroke-linecap="round"/><path d="M236.86019,70.75174h14" fill="none" stroke="#000000" stroke-linecap="round"/><path d="M231.86019,85.75174l18,1" fill="none" stroke="#000000" stroke-linecap="round"/><path d="M228.86019,104.75174h30" fill="none" stroke="#000000" stroke-linecap="round"/><path d="M232.86019,120.75174h24" fill="none" stroke="#000000" stroke-linecap="round"/><path d="M232.86019,130.75174h17" fill="none" stroke="#000000" stroke-linecap="round"/><path d="M228.86019,145.75174h24" fill="none" stroke="#000000" stroke-linecap="round"/><path d="M231.86019,160.75174l27,-1" fill="none" stroke="#000000" stroke-linecap="round"/><path d="M217.86019,180.75174h53" fill="none" stroke="#000000" stroke-linecap="round"/><path d="M222.86019,194.75174l54,-2" fill="none" stroke="#000000" stroke-linecap="round"/><path d="M228.86019,213.75174l31,-4" fill="none" stroke="#000000" stroke-linecap="round"/><path d="M223.86019,236.75174l53,-4" fill="none" stroke="#000000" stroke-linecap="round"/><path d="M238.86019,251.75174l15,-1" fill="none" stroke="#000000" stroke-linecap="round"/><path d="M229.86019,262.75174l36,2" fill="none" stroke="#000000" stroke-linecap="round"/><path d="M230.86019,277.75174l32,1" fill="none" stroke="#000000" stroke-linecap="round"/><path d="M232.86019,290.75174h28" fill="none" stroke="#000000" stroke-linecap="round"/><path d="M227.86019,305.75174h27" fill="none" stroke="#000000" stroke-linecap="round"/><path d="M228.86019,319.75174l27,-2" fill="none" stroke="#000000" stroke-linecap="round"/><path d="M234.86019,332.75174h11" fill="none" stroke="#000000" stroke-linecap="round"/><path d="M230.86019,342.75174l22,-2" fill="none" stroke="#000000" stroke-linecap="round"/><path d="M234.86019,349.75174h15" fill="none" stroke="#000000" stroke-linecap="round"/><path d="M230.86019,20.75174h19" fill="none" stroke="#000000" stroke-linecap="round"/><path d="M231.86019,9.75174l24,2" fill="none" stroke="#000000" stroke-linecap="round"/></g></g></svg>